# xmcd
#
# Track frame offsets: 
#        150
#        29047
#        73498
#        143979
#        165198
#        190495
#        220703
#        256082
#
# Disc length: 3693 seconds
#
# Revision: 0
# Processed by: cddbd v1.5.2PL0 Copyright (c) Steve Scherf et al.
# Submitted via: ExactAudioCopy v1.1
#
DISCID=770e6b08
DTITLE=Edward Ka-Spel - This Saturated Land
DYEAR=2012
DGENRE=Psychedelic
TTITLE0=A Rainy Day in July
TTITLE1=The Coast is Toast
TTITLE2=A Beautiful Pea Green Boat
TTITLE3=One By One
TTITLE4=Always October
TTITLE5=A Hollywood Sunset
TTITLE6=Made In China Part 3
TTITLE7=A Gallery Of Guilt
EXTD=
EXTT0=
EXTT1=
EXTT2=
EXTT3=
EXTT4=
EXTT5=
EXTT6=
EXTT7=
PLAYORDER=
